<svg xmlns="http://www.w3.org/2000/svg" xmlns:xlink="http://www.w3.org/1999/xlink" zoomAndPan="magnify" preserveAspectRatio="xMidYMid meet" version="1.0" viewBox="0 40.26 370.15 370.15"><defs><g/><clipPath id="f0af6c7854"><path d="M 0 40.261719 L 370.148438 40.261719 L 370.148438 410.410156 L 0 410.410156 Z M 0 40.261719 " clip-rule="nonzero"/></clipPath><clipPath id="2f80b21d76"><path d="M 185.074219 40.261719 C 82.859375 40.261719 0 123.121094 0 225.335938 C 0 327.550781 82.859375 410.410156 185.074219 410.410156 C 287.289062 410.410156 370.148438 327.550781 370.148438 225.335938 C 370.148438 123.121094 287.289062 40.261719 185.074219 40.261719 Z M 185.074219 40.261719 " clip-rule="nonzero"/></clipPath></defs><g clip-path="url(#f0af6c7854)"><g clip-path="url(#2f80b21d76)"><path fill="#07363c" d="M 0 40.261719 L 370.148438 40.261719 L 370.148438 410.410156 L 0 410.410156 Z M 0 40.261719 " fill-opacity="1" fill-rule="nonzero"/></g></g><g fill="#e4c19d" fill-opacity="1"><g transform="translate(102.518416, 273.380484)"><g><path d="M 90.28125 -70.5 L 39.921875 -70.5 L 31.046875 -50 C 28.890625 -44.957031 27.8125 -41.203125 27.8125 -38.734375 C 27.8125 -36.734375 28.75 -34.972656 30.625 -33.453125 C 32.507812 -31.929688 36.609375 -30.972656 42.921875 -30.578125 L 42.921875 -26.984375 L 1.921875 -26.984375 L 1.921875 -30.578125 C 7.359375 -31.535156 10.875 -32.773438 12.46875 -34.296875 C 15.75 -37.328125 19.347656 -43.5625 23.265625 -53 L 69.0625 -160.0625 L 72.421875 -160.0625 L 117.75 -51.796875 C 121.34375 -43.085938 124.632812 -37.453125 127.625 -34.890625 C 130.625 -32.328125 134.765625 -30.890625 140.046875 -30.578125 L 140.046875 -26.984375 L 88.734375 -26.984375 L 88.734375 -30.578125 C 93.921875 -30.816406 97.414062 -31.675781 99.21875 -33.15625 C 101.019531 -34.632812 101.921875 -36.410156 101.921875 -38.484375 C 101.921875 -41.285156 100.640625 -45.722656 98.078125 -51.796875 Z M 87.53125 -77.578125 L 65.46875 -130.21875 L 42.921875 -77.578125 Z M 87.53125 -77.578125 "/></g></g></g><path stroke-linecap="butt" transform="matrix(3.934405, 0, 0, 3.934405, 152.828345, 106.917395)" fill="none" stroke-linejoin="miter" d="M 13.095555 32.657758 L 13.095555 42.292315 C 13.095555 44.367359 13.316959 45.65607 13.759767 46.159442 C 14.393201 46.871311 15.330446 47.226749 16.572494 47.226749 L 17.848298 47.226749 L 17.848298 48.13818 L 3.682402 48.13818 L 3.682402 47.226749 L 4.932392 47.226749 C 6.329324 47.226749 7.32316 46.779969 7.913902 45.88641 C 8.234591 45.383038 8.395432 44.184676 8.395432 42.292315 L 8.395432 20.926316 C 8.395432 18.852265 8.182963 17.563553 7.757033 17.059189 C 7.10672 16.348313 6.164512 15.991882 4.932392 15.991882 L 3.682402 15.991882 L 3.682402 15.080451 L 15.804033 15.080451 C 18.754764 15.080451 21.080998 15.384261 22.782732 15.991882 C 24.492409 16.599502 25.929054 17.63206 27.092667 19.090547 C 28.264223 20.540099 28.850001 22.250769 28.850001 24.220571 C 28.850001 26.920114 27.960413 29.116284 26.181236 30.809083 C 24.401067 32.492946 21.88818 33.334878 18.642573 33.334878 C 17.852269 33.334878 16.993459 33.278286 16.064158 33.165102 C 15.143791 33.05291 14.154919 32.883134 13.095555 32.657758 Z M 13.095555 31.264799 C 13.946422 31.420675 14.705947 31.541802 15.374131 31.629172 C 16.051251 31.707607 16.62015 31.746328 17.079837 31.746328 C 18.772636 31.746328 20.231123 31.099986 21.454307 29.806311 C 22.687419 28.504693 23.302982 26.802958 23.302982 24.702101 C 23.302982 23.287298 23.008107 21.963837 22.418358 20.731718 C 21.827616 19.498606 20.998592 18.57824 19.931284 17.970619 C 18.863977 17.362999 17.652708 17.059189 16.298469 17.059189 C 15.465473 17.059189 14.398166 17.211094 13.095555 17.514904 Z M 13.095555 31.264799 " stroke="#07363c" stroke-width="2.599998" stroke-opacity="1" stroke-miterlimit="4"/><g fill="#e4c19d" fill-opacity="1"><g transform="translate(163.217633, 323.309681)"><g><path d="M 41.125 -87.890625 L 41.125 -50 C 41.125 -41.84375 42.003906 -36.765625 43.765625 -34.765625 C 46.242188 -31.972656 49.921875 -30.578125 54.796875 -30.578125 L 59.828125 -30.578125 L 59.828125 -26.984375 L 4.078125 -26.984375 L 4.078125 -30.578125 L 9 -30.578125 C 14.507812 -30.578125 18.425781 -32.332031 20.75 -35.84375 C 22.019531 -37.84375 22.65625 -42.5625 22.65625 -50 L 22.65625 -134.046875 C 22.65625 -142.203125 21.816406 -147.28125 20.140625 -149.28125 C 17.585938 -152.070312 13.875 -153.46875 9 -153.46875 L 4.078125 -153.46875 L 4.078125 -157.078125 L 51.796875 -157.078125 C 63.390625 -157.078125 72.539062 -155.875 79.25 -153.46875 C 85.96875 -151.070312 91.625 -147.015625 96.21875 -141.296875 C 100.8125 -135.585938 103.109375 -128.851562 103.109375 -121.09375 C 103.109375 -110.46875 99.609375 -101.835938 92.609375 -95.203125 C 85.617188 -88.566406 75.734375 -85.25 62.953125 -85.25 C 59.828125 -85.25 56.445312 -85.46875 52.8125 -85.90625 C 49.175781 -86.34375 45.28125 -87.003906 41.125 -87.890625 Z M 41.125 -93.40625 C 44.476562 -92.757812 47.472656 -92.273438 50.109375 -91.953125 C 52.753906 -91.640625 54.992188 -91.484375 56.828125 -91.484375 C 63.460938 -91.484375 69.195312 -94.039062 74.03125 -99.15625 C 78.875 -104.269531 81.296875 -110.945312 81.296875 -119.1875 C 81.296875 -124.78125 80.132812 -129.992188 77.8125 -134.828125 C 75.5 -139.660156 72.242188 -143.273438 68.046875 -145.671875 C 63.847656 -148.078125 59.070312 -149.28125 53.71875 -149.28125 C 50.4375 -149.28125 46.238281 -148.679688 41.125 -147.484375 Z M 41.125 -93.40625 "/></g></g></g></svg>