<svg xmlns="http://www.w3.org/2000/svg" xmlns:xlink="http://www.w3.org/1999/xlink" zoomAndPan="magnify" preserveAspectRatio="xMidYMid meet" version="1.0" viewBox="2.04 21.71 374.25 374.25"><defs><g/><clipPath id="f20bc69064"><path d="M 2.039062 21.710938 L 376.292969 21.710938 L 376.292969 395.964844 L 2.039062 395.964844 Z M 2.039062 21.710938 " clip-rule="nonzero"/></clipPath><clipPath id="3bcea4f842"><path d="M 189.167969 21.710938 C 85.820312 21.710938 2.039062 105.492188 2.039062 208.839844 C 2.039062 312.1875 85.820312 395.964844 189.167969 395.964844 C 292.515625 395.964844 376.292969 312.1875 376.292969 208.839844 C 376.292969 105.492188 292.515625 21.710938 189.167969 21.710938 Z M 189.167969 21.710938 " clip-rule="nonzero"/></clipPath></defs><g clip-path="url(#f20bc69064)"><g clip-path="url(#3bcea4f842)"><path fill="#07363c" d="M 2.039062 21.710938 L 376.292969 21.710938 L 376.292969 395.964844 L 2.039062 395.964844 Z M 2.039062 21.710938 " fill-opacity="1" fill-rule="nonzero"/></g></g><g fill="#e4c19d" fill-opacity="1"><g transform="translate(85.879234, 252.274133)"><g><path d="M 83.40625 -65.125 L 36.875 -65.125 L 28.6875 -46.1875 C 26.695312 -41.53125 25.703125 -38.0625 25.703125 -35.78125 C 25.703125 -33.925781 26.566406 -32.296875 28.296875 -30.890625 C 30.035156 -29.492188 33.820312 -28.613281 39.65625 -28.25 L 39.65625 -24.921875 L 1.765625 -24.921875 L 1.765625 -28.25 C 6.785156 -29.132812 10.035156 -30.273438 11.515625 -31.671875 C 14.546875 -34.484375 17.867188 -40.242188 21.484375 -48.953125 L 63.796875 -147.859375 L 66.90625 -147.859375 L 108.765625 -47.84375 C 112.085938 -39.800781 115.132812 -34.597656 117.90625 -32.234375 C 120.675781 -29.867188 124.492188 -28.539062 129.359375 -28.25 L 129.359375 -24.921875 L 81.96875 -24.921875 L 81.96875 -28.25 C 86.757812 -28.46875 89.984375 -29.257812 91.640625 -30.625 C 93.304688 -31.988281 94.140625 -33.628906 94.140625 -35.546875 C 94.140625 -38.140625 92.957031 -42.238281 90.59375 -47.84375 Z M 80.859375 -71.65625 L 60.46875 -120.28125 L 39.65625 -71.65625 Z M 80.859375 -71.65625 "/></g></g></g><path stroke-linecap="butt" transform="matrix(3.634335, 0, 0, 3.634335, 132.352104, 98.506876)" fill="none" stroke-linejoin="miter" d="M 13.095437 32.657536 L 13.095437 42.292207 C 13.095437 44.366606 13.316849 45.656388 13.759674 46.159403 C 14.393817 46.870932 15.331059 47.226697 16.572474 47.226697 L 17.848283 47.226697 L 17.848283 48.138143 L 3.682178 48.138143 L 3.682178 47.226697 L 4.932192 47.226697 C 6.329456 47.226697 7.323663 46.779573 7.913738 45.886399 C 8.235108 45.382309 8.395256 44.184962 8.395256 42.292207 L 8.395256 20.926969 C 8.395256 18.85257 8.182442 17.562788 7.757889 17.059773 C 7.106549 16.348244 6.165008 15.992479 4.932192 15.992479 L 3.682178 15.992479 L 3.682178 15.081033 L 15.803979 15.081033 C 18.75543 15.081033 21.081336 15.384132 22.782774 15.992479 C 24.492809 16.599751 25.928767 17.632651 27.09172 19.09118 C 28.264347 20.540035 28.850123 22.250071 28.850123 24.220212 C 28.850123 26.920156 27.960173 29.11601 26.181349 30.808848 C 24.40145 32.493089 21.888525 33.334671 18.642574 33.334671 C 17.852582 33.334671 16.992728 33.278781 16.064085 33.165925 C 15.14404 33.053069 14.154133 32.883248 13.095437 32.657536 Z M 13.095437 31.264571 C 13.946693 31.42042 14.705514 31.541874 15.374051 31.628935 C 16.051187 31.707396 16.619766 31.74609 17.079788 31.74609 C 18.772627 31.74609 20.231155 31.099049 21.454298 29.806043 C 22.687115 28.504438 23.302986 26.803001 23.302986 24.702806 C 23.302986 23.28727 23.008485 21.964169 22.41841 20.731352 C 21.82726 19.498536 20.998575 18.578491 19.931281 17.971219 C 18.863986 17.363947 17.652666 17.059773 16.298395 17.059773 C 15.465411 17.059773 14.398116 17.211323 13.095437 17.515496 Z M 13.095437 31.264571 " stroke="#07363c" stroke-width="2.599998" stroke-opacity="1" stroke-miterlimit="4"/><g fill="#e4c19d" fill-opacity="1"><g transform="translate(141.949021, 298.39532)"><g><path d="M 37.984375 -81.1875 L 37.984375 -46.1875 C 37.984375 -38.65625 38.796875 -33.96875 40.421875 -32.125 C 42.710938 -29.53125 46.109375 -28.234375 50.609375 -28.234375 L 55.265625 -28.234375 L 55.265625 -24.921875 L 3.765625 -24.921875 L 3.765625 -28.234375 L 8.3125 -28.234375 C 13.40625 -28.234375 17.019531 -29.859375 19.15625 -33.109375 C 20.34375 -34.960938 20.9375 -39.320312 20.9375 -46.1875 L 20.9375 -123.8125 C 20.9375 -131.34375 20.160156 -136.035156 18.609375 -137.890625 C 16.242188 -140.472656 12.8125 -141.765625 8.3125 -141.765625 L 3.765625 -141.765625 L 3.765625 -145.078125 L 47.84375 -145.078125 C 58.550781 -145.078125 67.003906 -143.96875 73.203125 -141.75 C 79.410156 -139.539062 84.632812 -135.796875 88.875 -130.515625 C 93.125 -125.234375 95.25 -119.015625 95.25 -111.859375 C 95.25 -102.035156 92.015625 -94.0625 85.546875 -87.9375 C 79.085938 -81.8125 69.953125 -78.75 58.140625 -78.75 C 55.265625 -78.75 52.144531 -78.953125 48.78125 -79.359375 C 45.425781 -79.765625 41.828125 -80.375 37.984375 -81.1875 Z M 37.984375 -86.28125 C 41.085938 -85.6875 43.859375 -85.238281 46.296875 -84.9375 C 48.734375 -84.644531 50.800781 -84.5 52.5 -84.5 C 58.625 -84.5 63.921875 -86.859375 68.390625 -91.578125 C 72.859375 -96.304688 75.09375 -102.472656 75.09375 -110.078125 C 75.09375 -115.253906 74.019531 -120.070312 71.875 -124.53125 C 69.738281 -129 66.726562 -132.34375 62.84375 -134.5625 C 58.96875 -136.78125 54.554688 -137.890625 49.609375 -137.890625 C 46.585938 -137.890625 42.710938 -137.332031 37.984375 -136.21875 Z M 37.984375 -86.28125 "/></g></g></g><g fill="#e4c19d" fill-opacity="1"><g transform="translate(199.243252, 272.378341)"><g><path d="M 13.4375 -19.21875 C 15.1875 -19.21875 16.488281 -18.691406 17.34375 -17.640625 C 18.195312 -16.585938 18.625 -15.363281 18.625 -13.96875 C 18.625 -12.007812 18.234375 -10.191406 17.453125 -8.515625 C 16.679688 -6.835938 15.734375 -5.359375 14.609375 -4.078125 C 13.484375 -2.804688 12.269531 -1.804688 10.96875 -1.078125 C 9.664062 -0.359375 8.488281 0 7.4375 0 C 5.726562 0 4.4375 -0.507812 3.5625 -1.53125 C 2.6875 -2.5625 2.25 -3.878906 2.25 -5.484375 C 2.25 -6.929688 2.5625 -8.457031 3.1875 -10.0625 C 3.8125 -11.664062 4.632812 -13.140625 5.65625 -14.484375 C 6.6875 -15.835938 7.878906 -16.960938 9.234375 -17.859375 C 10.585938 -18.765625 11.988281 -19.21875 13.4375 -19.21875 Z M 9.3125 -2.328125 C 10.863281 -2.328125 12.175781 -3.140625 13.25 -4.765625 C 14.332031 -6.390625 14.875 -8.628906 14.875 -11.484375 C 14.875 -12.984375 14.570312 -14.234375 13.96875 -15.234375 C 13.363281 -16.242188 12.488281 -16.75 11.34375 -16.75 C 9.738281 -16.75 8.4375 -15.972656 7.4375 -14.421875 C 6.4375 -12.867188 5.9375 -10.585938 5.9375 -7.578125 C 5.9375 -5.828125 6.25 -4.515625 6.875 -3.640625 C 7.5 -2.765625 8.3125 -2.328125 9.3125 -2.328125 Z M 9.3125 -2.328125 "/></g></g></g><g fill="#e4c19d" fill-opacity="1"><g transform="translate(218.614923, 272.378341)"><g><path d="M 34.390625 -55.796875 C 35.140625 -55.796875 35.753906 -55.609375 36.234375 -55.234375 C 36.710938 -54.859375 37.035156 -54.359375 37.203125 -53.734375 C 37.378906 -53.109375 37.40625 -52.394531 37.28125 -51.59375 C 37.15625 -50.789062 36.867188 -49.988281 36.421875 -49.1875 C 36.316406 -49.082031 36.1875 -49.082031 36.03125 -49.1875 C 35.882812 -49.289062 35.789062 -49.414062 35.75 -49.5625 C 35.84375 -50.164062 35.625 -50.664062 35.09375 -51.0625 C 34.570312 -51.46875 33.765625 -51.671875 32.671875 -51.671875 C 30.617188 -51.671875 28.550781 -50.90625 26.46875 -49.375 C 24.394531 -47.84375 22.378906 -45.828125 20.421875 -43.328125 C 18.472656 -40.828125 16.644531 -37.945312 14.9375 -34.6875 C 13.238281 -31.4375 11.765625 -28.082031 10.515625 -24.625 C 9.265625 -21.175781 8.273438 -17.75 7.546875 -14.34375 C 6.816406 -10.9375 6.453125 -7.832031 6.453125 -5.03125 C 6.453125 -3.53125 6.878906 -2.78125 7.734375 -2.78125 C 8.335938 -2.78125 8.925781 -3.03125 9.5 -3.53125 C 10.070312 -4.03125 10.734375 -4.78125 11.484375 -5.78125 C 11.640625 -5.882812 11.78125 -5.875 11.90625 -5.75 C 12.03125 -5.625 12.066406 -5.457031 12.015625 -5.25 C 11.015625 -3.75 9.835938 -2.5 8.484375 -1.5 C 7.128906 -0.5 5.90625 0 4.8125 0 C 3.851562 0 3.1875 -0.273438 2.8125 -0.828125 C 2.4375 -1.378906 2.25 -2.078125 2.25 -2.921875 C 2.25 -5.273438 2.75 -8.21875 3.75 -11.75 C 4.75 -15.28125 6.085938 -19.007812 7.765625 -22.9375 C 9.441406 -26.875 11.378906 -30.789062 13.578125 -34.6875 C 15.785156 -38.59375 18.078125 -42.109375 20.453125 -45.234375 C 22.835938 -48.367188 25.226562 -50.910156 27.625 -52.859375 C 30.03125 -54.816406 32.285156 -55.796875 34.390625 -55.796875 Z M 34.390625 -55.796875 "/></g></g></g><g fill="#e4c19d" fill-opacity="1"><g transform="translate(229.877526, 272.378341)"><g><path d="M 34.390625 -55.796875 C 35.140625 -55.796875 35.753906 -55.609375 36.234375 -55.234375 C 36.710938 -54.859375 37.035156 -54.359375 37.203125 -53.734375 C 37.378906 -53.109375 37.40625 -52.394531 37.28125 -51.59375 C 37.15625 -50.789062 36.867188 -49.988281 36.421875 -49.1875 C 36.316406 -49.082031 36.1875 -49.082031 36.03125 -49.1875 C 35.882812 -49.289062 35.789062 -49.414062 35.75 -49.5625 C 35.84375 -50.164062 35.625 -50.664062 35.09375 -51.0625 C 34.570312 -51.46875 33.765625 -51.671875 32.671875 -51.671875 C 30.617188 -51.671875 28.550781 -50.90625 26.46875 -49.375 C 24.394531 -47.84375 22.378906 -45.828125 20.421875 -43.328125 C 18.472656 -40.828125 16.644531 -37.945312 14.9375 -34.6875 C 13.238281 -31.4375 11.765625 -28.082031 10.515625 -24.625 C 9.265625 -21.175781 8.273438 -17.75 7.546875 -14.34375 C 6.816406 -10.9375 6.453125 -7.832031 6.453125 -5.03125 C 6.453125 -3.53125 6.878906 -2.78125 7.734375 -2.78125 C 8.335938 -2.78125 8.925781 -3.03125 9.5 -3.53125 C 10.070312 -4.03125 10.734375 -4.78125 11.484375 -5.78125 C 11.640625 -5.882812 11.78125 -5.875 11.90625 -5.75 C 12.03125 -5.625 12.066406 -5.457031 12.015625 -5.25 C 11.015625 -3.75 9.835938 -2.5 8.484375 -1.5 C 7.128906 -0.5 5.90625 0 4.8125 0 C 3.851562 0 3.1875 -0.273438 2.8125 -0.828125 C 2.4375 -1.378906 2.25 -2.078125 2.25 -2.921875 C 2.25 -5.273438 2.75 -8.21875 3.75 -11.75 C 4.75 -15.28125 6.085938 -19.007812 7.765625 -22.9375 C 9.441406 -26.875 11.378906 -30.789062 13.578125 -34.6875 C 15.785156 -38.59375 18.078125 -42.109375 20.453125 -45.234375 C 22.835938 -48.367188 25.226562 -50.910156 27.625 -52.859375 C 30.03125 -54.816406 32.285156 -55.796875 34.390625 -55.796875 Z M 34.390625 -55.796875 "/></g></g></g><g fill="#e4c19d" fill-opacity="1"><g transform="translate(241.140129, 272.378341)"><g><path d="M 34.390625 -55.796875 C 35.140625 -55.796875 35.753906 -55.609375 36.234375 -55.234375 C 36.710938 -54.859375 37.035156 -54.359375 37.203125 -53.734375 C 37.378906 -53.109375 37.40625 -52.394531 37.28125 -51.59375 C 37.15625 -50.789062 36.867188 -49.988281 36.421875 -49.1875 C 36.316406 -49.082031 36.1875 -49.082031 36.03125 -49.1875 C 35.882812 -49.289062 35.789062 -49.414062 35.75 -49.5625 C 35.84375 -50.164062 35.625 -50.664062 35.09375 -51.0625 C 34.570312 -51.46875 33.765625 -51.671875 32.671875 -51.671875 C 30.617188 -51.671875 28.550781 -50.90625 26.46875 -49.375 C 24.394531 -47.84375 22.378906 -45.828125 20.421875 -43.328125 C 18.472656 -40.828125 16.644531 -37.945312 14.9375 -34.6875 C 13.238281 -31.4375 11.765625 -28.082031 10.515625 -24.625 C 9.265625 -21.175781 8.273438 -17.75 7.546875 -14.34375 C 6.816406 -10.9375 6.453125 -7.832031 6.453125 -5.03125 C 6.453125 -3.53125 6.878906 -2.78125 7.734375 -2.78125 C 8.335938 -2.78125 8.925781 -3.03125 9.5 -3.53125 C 10.070312 -4.03125 10.734375 -4.78125 11.484375 -5.78125 C 11.640625 -5.882812 11.78125 -5.875 11.90625 -5.75 C 12.03125 -5.625 12.066406 -5.457031 12.015625 -5.25 C 11.015625 -3.75 9.835938 -2.5 8.484375 -1.5 C 7.128906 -0.5 5.90625 0 4.8125 0 C 3.851562 0 3.1875 -0.273438 2.8125 -0.828125 C 2.4375 -1.378906 2.25 -2.078125 2.25 -2.921875 C 2.25 -5.273438 2.75 -8.21875 3.75 -11.75 C 4.75 -15.28125 6.085938 -19.007812 7.765625 -22.9375 C 9.441406 -26.875 11.378906 -30.789062 13.578125 -34.6875 C 15.785156 -38.59375 18.078125 -42.109375 20.453125 -45.234375 C 22.835938 -48.367188 25.226562 -50.910156 27.625 -52.859375 C 30.03125 -54.816406 32.285156 -55.796875 34.390625 -55.796875 Z M 34.390625 -55.796875 "/></g></g></g><g fill="#e4c19d" fill-opacity="1"><g transform="translate(252.402732, 272.378341)"><g><path d="M 13.4375 -19.21875 C 15.1875 -19.21875 16.488281 -18.691406 17.34375 -17.640625 C 18.195312 -16.585938 18.625 -15.363281 18.625 -13.96875 C 18.625 -12.007812 18.234375 -10.191406 17.453125 -8.515625 C 16.679688 -6.835938 15.734375 -5.359375 14.609375 -4.078125 C 13.484375 -2.804688 12.269531 -1.804688 10.96875 -1.078125 C 9.664062 -0.359375 8.488281 0 7.4375 0 C 5.726562 0 4.4375 -0.507812 3.5625 -1.53125 C 2.6875 -2.5625 2.25 -3.878906 2.25 -5.484375 C 2.25 -6.929688 2.5625 -8.457031 3.1875 -10.0625 C 3.8125 -11.664062 4.632812 -13.140625 5.65625 -14.484375 C 6.6875 -15.835938 7.878906 -16.960938 9.234375 -17.859375 C 10.585938 -18.765625 11.988281 -19.21875 13.4375 -19.21875 Z M 9.3125 -2.328125 C 10.863281 -2.328125 12.175781 -3.140625 13.25 -4.765625 C 14.332031 -6.390625 14.875 -8.628906 14.875 -11.484375 C 14.875 -12.984375 14.570312 -14.234375 13.96875 -15.234375 C 13.363281 -16.242188 12.488281 -16.75 11.34375 -16.75 C 9.738281 -16.75 8.4375 -15.972656 7.4375 -14.421875 C 6.4375 -12.867188 5.9375 -10.585938 5.9375 -7.578125 C 5.9375 -5.828125 6.25 -4.515625 6.875 -3.640625 C 7.5 -2.765625 8.3125 -2.328125 9.3125 -2.328125 Z M 9.3125 -2.328125 "/></g></g></g></svg>