<svg xmlns="http://www.w3.org/2000/svg" xmlns:xlink="http://www.w3.org/1999/xlink" zoomAndPan="magnify" preserveAspectRatio="xMidYMid meet" version="1.0" viewBox="86.79 103.39 196.32 167.9"><defs><g/></defs><g fill="#07363c" fill-opacity="1"><g transform="translate(85.043632, 249.813204)"><g><path d="M 82.59375 -64.484375 L 36.515625 -64.484375 L 28.40625 -45.734375 C 26.4375 -41.128906 25.453125 -37.691406 25.453125 -35.421875 C 25.453125 -33.597656 26.304688 -31.988281 28.015625 -30.59375 C 29.734375 -29.207031 33.484375 -28.332031 39.265625 -27.96875 L 39.265625 -24.671875 L 1.75 -24.671875 L 1.75 -27.96875 C 6.726562 -28.84375 9.945312 -29.976562 11.40625 -31.375 C 14.40625 -34.144531 17.695312 -39.847656 21.28125 -48.484375 L 63.171875 -146.421875 L 66.25 -146.421875 L 107.703125 -47.375 C 110.992188 -39.40625 114.007812 -34.25 116.75 -31.90625 C 119.488281 -29.570312 123.273438 -28.257812 128.109375 -27.96875 L 128.109375 -24.671875 L 81.15625 -24.671875 L 81.15625 -27.96875 C 85.914062 -28.1875 89.117188 -28.972656 90.765625 -30.328125 C 92.410156 -31.679688 93.234375 -33.304688 93.234375 -35.203125 C 93.234375 -37.765625 92.0625 -41.820312 89.71875 -47.375 Z M 80.0625 -70.96875 L 59.890625 -119.109375 L 39.265625 -70.96875 Z M 80.0625 -70.96875 "/></g></g></g><path stroke-linecap="butt" transform="matrix(3.598974, 0, 0, 3.598974, 131.064327, 97.542099)" fill="none" stroke-linejoin="miter" d="M 13.095674 32.657122 L 13.095674 42.292031 C 13.095674 44.367275 13.317092 45.65562 13.759926 46.159236 C 14.393787 46.871245 15.330469 47.227249 16.572143 47.227249 L 17.848549 47.227249 L 17.848549 48.138967 L 3.682183 48.138967 L 3.682183 47.227249 L 4.932539 47.227249 C 6.329422 47.227249 7.323629 46.780073 7.914075 45.885721 C 8.235347 45.382105 8.395984 44.184932 8.395984 42.292031 L 8.395984 20.926347 C 8.395984 18.852188 8.183249 17.562758 7.757781 17.059142 C 7.106553 16.348219 6.164445 15.992214 4.932539 15.992214 L 3.682183 15.992214 L 3.682183 15.080496 L 15.803695 15.080496 C 18.75484 15.080496 21.080807 15.384402 22.782681 15.992214 C 24.492153 16.600027 25.929195 17.632222 27.092721 19.090971 C 28.263845 20.539952 28.849949 22.250509 28.849949 24.220472 C 28.849949 26.919809 27.959939 29.116616 26.181002 30.808722 C 24.400981 32.49323 21.888329 33.334399 18.641961 33.334399 C 17.85289 33.334399 16.99327 33.277959 16.064186 33.16508 C 15.143784 33.0522 14.155004 32.882881 13.095674 32.657122 Z M 13.095674 31.264581 C 13.946611 31.420876 14.706377 31.542438 15.373885 31.629269 C 16.051161 31.707416 16.6199 31.746489 17.0801 31.746489 C 18.772206 31.746489 20.230955 31.099604 21.454177 29.805832 C 22.687168 28.504463 23.303663 26.802588 23.303663 24.70238 C 23.303663 23.287046 23.00844 21.963969 22.417994 20.730979 C 21.827548 19.499074 20.998318 18.578672 19.931391 17.97086 C 18.863378 17.363048 17.65318 17.059142 16.298627 17.059142 C 15.465056 17.059142 14.398129 17.211095 13.095674 17.515001 Z M 13.095674 31.264581 " stroke="#ffffff" stroke-width="0.733333" stroke-opacity="1" stroke-miterlimit="4"/><g fill="#07363c" fill-opacity="1"><g transform="translate(140.567867, 295.485644)"><g><path d="M 37.625 -80.390625 L 37.625 -45.734375 C 37.625 -38.273438 38.425781 -33.632812 40.03125 -31.8125 C 42.300781 -29.25 45.664062 -27.96875 50.125 -27.96875 L 54.734375 -27.96875 L 54.734375 -24.671875 L 3.734375 -24.671875 L 3.734375 -27.96875 L 8.21875 -27.96875 C 13.269531 -27.96875 16.851562 -29.578125 18.96875 -32.796875 C 20.144531 -34.617188 20.734375 -38.929688 20.734375 -45.734375 L 20.734375 -122.625 C 20.734375 -130.082031 19.960938 -134.722656 18.421875 -136.546875 C 16.085938 -139.109375 12.6875 -140.390625 8.21875 -140.390625 L 3.734375 -140.390625 L 3.734375 -143.671875 L 47.375 -143.671875 C 57.976562 -143.671875 66.347656 -142.570312 72.484375 -140.375 C 78.628906 -138.1875 83.804688 -134.476562 88.015625 -129.25 C 92.222656 -124.03125 94.328125 -117.875 94.328125 -110.78125 C 94.328125 -101.050781 91.125 -93.148438 84.71875 -87.078125 C 78.320312 -81.015625 69.273438 -77.984375 57.578125 -77.984375 C 54.722656 -77.984375 51.632812 -78.179688 48.3125 -78.578125 C 44.988281 -78.984375 41.425781 -79.585938 37.625 -80.390625 Z M 37.625 -85.4375 C 40.6875 -84.851562 43.425781 -84.414062 45.84375 -84.125 C 48.257812 -83.832031 50.304688 -83.6875 51.984375 -83.6875 C 58.054688 -83.6875 63.300781 -86.023438 67.71875 -90.703125 C 72.144531 -95.378906 74.359375 -101.484375 74.359375 -109.015625 C 74.359375 -114.140625 73.296875 -118.910156 71.171875 -123.328125 C 69.054688 -127.753906 66.078125 -131.0625 62.234375 -133.25 C 58.398438 -135.445312 54.035156 -136.546875 49.140625 -136.546875 C 46.140625 -136.546875 42.300781 -136 37.625 -134.90625 Z M 37.625 -85.4375 "/></g></g></g><g fill="#07363c" fill-opacity="1"><g transform="translate(201.462698, 271.290981)"><g><path d="M 13.84375 -19.796875 C 15.65625 -19.796875 17 -19.253906 17.875 -18.171875 C 18.75 -17.097656 19.1875 -15.835938 19.1875 -14.390625 C 19.1875 -12.378906 18.785156 -10.507812 17.984375 -8.78125 C 17.179688 -7.050781 16.203125 -5.53125 15.046875 -4.21875 C 13.890625 -2.90625 12.640625 -1.875 11.296875 -1.125 C 9.953125 -0.375 8.738281 0 7.65625 0 C 5.90625 0 4.578125 -0.523438 3.671875 -1.578125 C 2.773438 -2.640625 2.328125 -3.992188 2.328125 -5.640625 C 2.328125 -7.140625 2.644531 -8.710938 3.28125 -10.359375 C 3.925781 -12.015625 4.773438 -13.535156 5.828125 -14.921875 C 6.890625 -16.316406 8.117188 -17.476562 9.515625 -18.40625 C 10.910156 -19.332031 12.351562 -19.796875 13.84375 -19.796875 Z M 9.59375 -2.390625 C 11.1875 -2.390625 12.535156 -3.226562 13.640625 -4.90625 C 14.753906 -6.582031 15.3125 -8.894531 15.3125 -11.84375 C 15.3125 -13.382812 15 -14.671875 14.375 -15.703125 C 13.757812 -16.734375 12.863281 -17.25 11.6875 -17.25 C 10.03125 -17.25 8.6875 -16.445312 7.65625 -14.84375 C 6.625 -13.25 6.109375 -10.90625 6.109375 -7.8125 C 6.109375 -6.007812 6.429688 -4.65625 7.078125 -3.75 C 7.722656 -2.84375 8.5625 -2.390625 9.59375 -2.390625 Z M 9.59375 -2.390625 "/></g></g></g><g fill="#07363c" fill-opacity="1"><g transform="translate(221.420309, 271.290981)"><g><path d="M 35.4375 -57.484375 C 36.207031 -57.484375 36.835938 -57.285156 37.328125 -56.890625 C 37.816406 -56.503906 38.148438 -55.988281 38.328125 -55.34375 C 38.515625 -54.707031 38.539062 -53.972656 38.40625 -53.140625 C 38.28125 -52.316406 37.984375 -51.492188 37.515625 -50.671875 C 37.410156 -50.566406 37.28125 -50.566406 37.125 -50.671875 C 36.976562 -50.773438 36.878906 -50.90625 36.828125 -51.0625 C 36.929688 -51.675781 36.710938 -52.1875 36.171875 -52.59375 C 35.628906 -53.007812 34.789062 -53.21875 33.65625 -53.21875 C 31.539062 -53.21875 29.410156 -52.429688 27.265625 -50.859375 C 25.128906 -49.285156 23.054688 -47.207031 21.046875 -44.625 C 19.035156 -42.050781 17.148438 -39.085938 15.390625 -35.734375 C 13.640625 -32.390625 12.117188 -28.9375 10.828125 -25.375 C 9.535156 -21.8125 8.515625 -18.273438 7.765625 -14.765625 C 7.023438 -11.265625 6.65625 -8.070312 6.65625 -5.1875 C 6.65625 -3.632812 7.09375 -2.859375 7.96875 -2.859375 C 8.582031 -2.859375 9.1875 -3.113281 9.78125 -3.625 C 10.375 -4.144531 11.0625 -4.921875 11.84375 -5.953125 C 11.988281 -6.054688 12.125 -6.039062 12.25 -5.90625 C 12.382812 -5.78125 12.425781 -5.617188 12.375 -5.421875 C 11.34375 -3.867188 10.128906 -2.578125 8.734375 -1.546875 C 7.347656 -0.515625 6.085938 0 4.953125 0 C 3.972656 0 3.289062 -0.28125 2.90625 -0.84375 C 2.519531 -1.414062 2.328125 -2.140625 2.328125 -3.015625 C 2.328125 -5.441406 2.84375 -8.472656 3.875 -12.109375 C 4.90625 -15.742188 6.28125 -19.582031 8 -23.625 C 9.726562 -27.675781 11.726562 -31.710938 14 -35.734375 C 16.269531 -39.765625 18.628906 -43.390625 21.078125 -46.609375 C 23.523438 -49.828125 25.988281 -52.441406 28.46875 -54.453125 C 30.945312 -56.472656 33.269531 -57.484375 35.4375 -57.484375 Z M 35.4375 -57.484375 "/></g></g></g><g fill="#07363c" fill-opacity="1"><g transform="translate(233.023572, 271.290981)"><g><path d="M 35.4375 -57.484375 C 36.207031 -57.484375 36.835938 -57.285156 37.328125 -56.890625 C 37.816406 -56.503906 38.148438 -55.988281 38.328125 -55.34375 C 38.515625 -54.707031 38.539062 -53.972656 38.40625 -53.140625 C 38.28125 -52.316406 37.984375 -51.492188 37.515625 -50.671875 C 37.410156 -50.566406 37.28125 -50.566406 37.125 -50.671875 C 36.976562 -50.773438 36.878906 -50.90625 36.828125 -51.0625 C 36.929688 -51.675781 36.710938 -52.1875 36.171875 -52.59375 C 35.628906 -53.007812 34.789062 -53.21875 33.65625 -53.21875 C 31.539062 -53.21875 29.410156 -52.429688 27.265625 -50.859375 C 25.128906 -49.285156 23.054688 -47.207031 21.046875 -44.625 C 19.035156 -42.050781 17.148438 -39.085938 15.390625 -35.734375 C 13.640625 -32.390625 12.117188 -28.9375 10.828125 -25.375 C 9.535156 -21.8125 8.515625 -18.273438 7.765625 -14.765625 C 7.023438 -11.265625 6.65625 -8.070312 6.65625 -5.1875 C 6.65625 -3.632812 7.09375 -2.859375 7.96875 -2.859375 C 8.582031 -2.859375 9.1875 -3.113281 9.78125 -3.625 C 10.375 -4.144531 11.0625 -4.921875 11.84375 -5.953125 C 11.988281 -6.054688 12.125 -6.039062 12.25 -5.90625 C 12.382812 -5.78125 12.425781 -5.617188 12.375 -5.421875 C 11.34375 -3.867188 10.128906 -2.578125 8.734375 -1.546875 C 7.347656 -0.515625 6.085938 0 4.953125 0 C 3.972656 0 3.289062 -0.28125 2.90625 -0.84375 C 2.519531 -1.414062 2.328125 -2.140625 2.328125 -3.015625 C 2.328125 -5.441406 2.84375 -8.472656 3.875 -12.109375 C 4.90625 -15.742188 6.28125 -19.582031 8 -23.625 C 9.726562 -27.675781 11.726562 -31.710938 14 -35.734375 C 16.269531 -39.765625 18.628906 -43.390625 21.078125 -46.609375 C 23.523438 -49.828125 25.988281 -52.441406 28.46875 -54.453125 C 30.945312 -56.472656 33.269531 -57.484375 35.4375 -57.484375 Z M 35.4375 -57.484375 "/></g></g></g><g fill="#07363c" fill-opacity="1"><g transform="translate(244.626835, 271.290981)"><g><path d="M 35.4375 -57.484375 C 36.207031 -57.484375 36.835938 -57.285156 37.328125 -56.890625 C 37.816406 -56.503906 38.148438 -55.988281 38.328125 -55.34375 C 38.515625 -54.707031 38.539062 -53.972656 38.40625 -53.140625 C 38.28125 -52.316406 37.984375 -51.492188 37.515625 -50.671875 C 37.410156 -50.566406 37.28125 -50.566406 37.125 -50.671875 C 36.976562 -50.773438 36.878906 -50.90625 36.828125 -51.0625 C 36.929688 -51.675781 36.710938 -52.1875 36.171875 -52.59375 C 35.628906 -53.007812 34.789062 -53.21875 33.65625 -53.21875 C 31.539062 -53.21875 29.410156 -52.429688 27.265625 -50.859375 C 25.128906 -49.285156 23.054688 -47.207031 21.046875 -44.625 C 19.035156 -42.050781 17.148438 -39.085938 15.390625 -35.734375 C 13.640625 -32.390625 12.117188 -28.9375 10.828125 -25.375 C 9.535156 -21.8125 8.515625 -18.273438 7.765625 -14.765625 C 7.023438 -11.265625 6.65625 -8.070312 6.65625 -5.1875 C 6.65625 -3.632812 7.09375 -2.859375 7.96875 -2.859375 C 8.582031 -2.859375 9.1875 -3.113281 9.78125 -3.625 C 10.375 -4.144531 11.0625 -4.921875 11.84375 -5.953125 C 11.988281 -6.054688 12.125 -6.039062 12.25 -5.90625 C 12.382812 -5.78125 12.425781 -5.617188 12.375 -5.421875 C 11.34375 -3.867188 10.128906 -2.578125 8.734375 -1.546875 C 7.347656 -0.515625 6.085938 0 4.953125 0 C 3.972656 0 3.289062 -0.28125 2.90625 -0.84375 C 2.519531 -1.414062 2.328125 -2.140625 2.328125 -3.015625 C 2.328125 -5.441406 2.84375 -8.472656 3.875 -12.109375 C 4.90625 -15.742188 6.28125 -19.582031 8 -23.625 C 9.726562 -27.675781 11.726562 -31.710938 14 -35.734375 C 16.269531 -39.765625 18.628906 -43.390625 21.078125 -46.609375 C 23.523438 -49.828125 25.988281 -52.441406 28.46875 -54.453125 C 30.945312 -56.472656 33.269531 -57.484375 35.4375 -57.484375 Z M 35.4375 -57.484375 "/></g></g></g><g fill="#07363c" fill-opacity="1"><g transform="translate(256.230097, 271.290981)"><g><path d="M 13.84375 -19.796875 C 15.65625 -19.796875 17 -19.253906 17.875 -18.171875 C 18.75 -17.097656 19.1875 -15.835938 19.1875 -14.390625 C 19.1875 -12.378906 18.785156 -10.507812 17.984375 -8.78125 C 17.179688 -7.050781 16.203125 -5.53125 15.046875 -4.21875 C 13.890625 -2.90625 12.640625 -1.875 11.296875 -1.125 C 9.953125 -0.375 8.738281 0 7.65625 0 C 5.90625 0 4.578125 -0.523438 3.671875 -1.578125 C 2.773438 -2.640625 2.328125 -3.992188 2.328125 -5.640625 C 2.328125 -7.140625 2.644531 -8.710938 3.28125 -10.359375 C 3.925781 -12.015625 4.773438 -13.535156 5.828125 -14.921875 C 6.890625 -16.316406 8.117188 -17.476562 9.515625 -18.40625 C 10.910156 -19.332031 12.351562 -19.796875 13.84375 -19.796875 Z M 9.59375 -2.390625 C 11.1875 -2.390625 12.535156 -3.226562 13.640625 -4.90625 C 14.753906 -6.582031 15.3125 -8.894531 15.3125 -11.84375 C 15.3125 -13.382812 15 -14.671875 14.375 -15.703125 C 13.757812 -16.734375 12.863281 -17.25 11.6875 -17.25 C 10.03125 -17.25 8.6875 -16.445312 7.65625 -14.84375 C 6.625 -13.25 6.109375 -10.90625 6.109375 -7.8125 C 6.109375 -6.007812 6.429688 -4.65625 7.078125 -3.75 C 7.722656 -2.84375 8.5625 -2.390625 9.59375 -2.390625 Z M 9.59375 -2.390625 "/></g></g></g></svg>